<svg width="185" height="185" viewBox="0 0 185 185" fill="none" xmlns="http://www.w3.org/2000/svg">
<rect width="185" height="185" fill="#040404"/>
<path d="M51.7291 95.9868V100.134H43.7318V120.653H40.2309C39.2949 120.653 38.5359 119.894 38.5359 118.958V100.134H30.5V95.9868H51.7275H51.7291Z" fill="white"/>
<path d="M61.0699 95.9868V120.653H57.569C56.6331 120.653 55.874 119.894 55.874 118.958V95.9868H61.0683H61.0699Z" fill="white"/>
<path d="M88.0542 113.476C87.3305 115.893 86.0552 117.693 84.2235 118.877C82.3919 120.06 80.2434 120.652 77.7765 120.652C75.3096 120.652 73.3605 120.142 71.6285 119.119C69.8966 118.098 68.557 116.641 67.6114 114.747C66.6642 112.854 66.1914 110.587 66.1914 107.944C66.1914 105.302 66.6642 103.036 67.6114 101.142C68.5586 99.2491 69.8966 97.7906 71.6285 96.7694C73.3605 95.7482 75.3964 95.2368 77.7395 95.2368C79.3846 95.2368 80.8786 95.4732 82.2246 95.9476C83.5706 96.422 84.7156 97.1312 85.6628 98.0784C86.61 99.0256 87.2951 100.246 87.7181 101.742L83.0464 103.684C82.6733 102.141 82.0558 101.05 81.197 100.415C80.3383 99.7798 79.2592 99.4614 77.9646 99.4614C76.6701 99.4614 75.5042 99.7847 74.5457 100.433C73.5857 101.081 72.8459 102.034 72.3217 103.292C71.799 104.551 71.5369 106.101 71.5369 107.944C71.5369 109.787 71.7861 111.302 72.2847 112.56C72.7832 113.819 73.5117 114.777 74.4717 115.437C75.4302 116.098 76.5832 116.427 77.9293 116.427C79.2753 116.427 80.3769 116.067 81.3112 115.343C81.8869 114.9 82.3501 114.308 82.7038 113.571C83.1139 112.714 84.074 112.27 84.9826 112.545L88.0574 113.475L88.0542 113.476Z" fill="white"/>
<path d="M109.97 120.653C108.052 120.653 106.376 120.274 104.943 119.513C103.51 118.754 102.396 117.644 101.598 116.187C100.801 114.73 100.402 112.979 100.402 110.937C100.402 108.894 100.801 107.143 101.598 105.686C102.396 104.229 103.491 103.119 104.887 102.36C106.281 101.601 107.889 101.22 109.708 101.22C111.527 101.22 113.127 101.6 114.436 102.36C115.744 103.121 116.747 104.162 117.445 105.482C118.143 106.802 118.492 108.311 118.492 110.004C118.492 110.453 118.479 110.871 118.455 111.257C118.429 111.643 118.392 111.974 118.342 112.247H103.768V109.182H116.064L113.56 110.043C113.56 108.971 113.41 108.061 113.111 107.315C112.812 106.567 112.376 105.995 111.804 105.596C111.23 105.197 110.533 104.998 109.711 104.998C108.79 104.998 107.999 105.221 107.338 105.67C106.677 106.119 106.18 106.786 105.842 107.669C105.506 108.553 105.337 109.668 105.337 111.014C105.337 112.36 105.524 113.431 105.898 114.302C106.272 115.176 106.807 115.822 107.505 116.245C108.203 116.67 109.025 116.88 109.972 116.88C110.993 116.88 111.834 116.663 112.495 116.226C112.81 116.017 113.09 115.771 113.335 115.484C113.852 114.88 114.7 114.677 115.443 114.96L118.119 115.981C117.746 116.978 117.152 117.826 116.343 118.522C115.533 119.22 114.581 119.749 113.484 120.111C112.387 120.471 111.217 120.653 109.97 120.653V120.653Z" fill="white"/>
<path d="M122.677 118.958V102C122.677 101.98 122.691 101.966 122.711 101.966H127.241C127.258 101.966 127.273 101.98 127.274 101.998L127.453 105.311C127.455 105.346 127.501 105.354 127.517 105.324C128.112 104.111 128.939 103.191 130.002 102.564C131.099 101.916 132.306 101.593 133.627 101.593C134.947 101.593 136.187 101.905 137.271 102.527C138.334 103.138 139.115 104.06 139.615 105.295C139.627 105.322 139.664 105.324 139.676 105.295C140.048 104.48 140.553 103.799 141.195 103.256C141.854 102.694 142.602 102.278 143.436 102.003C144.271 101.73 145.112 101.591 145.959 101.591C147.18 101.591 148.277 101.841 149.248 102.339C150.219 102.838 151.004 103.585 151.602 104.581C152.201 105.578 152.5 106.835 152.5 108.355V120.617C152.5 120.637 152.485 120.651 152.466 120.651H149.037C148.102 120.651 147.342 119.892 147.342 118.956V109.402C147.342 108.056 147.043 107.091 146.445 106.506C145.847 105.92 145.086 105.628 144.165 105.628C143.417 105.628 142.745 105.814 142.147 106.189C141.548 106.562 141.069 107.117 140.707 107.852C140.345 108.587 140.165 109.478 140.165 110.525V120.619C140.165 120.638 140.151 120.653 140.132 120.653H136.703C135.767 120.653 135.008 119.894 135.008 118.958V109.404C135.008 108.058 134.709 107.093 134.111 106.507C133.512 105.922 132.765 105.629 131.869 105.629C131.197 105.629 130.549 105.805 129.926 106.152C129.304 106.501 128.799 107.049 128.413 107.797C128.027 108.545 127.834 109.516 127.834 110.713V120.621C127.834 120.64 127.82 120.654 127.8 120.654H124.372C123.436 120.654 122.677 119.895 122.677 118.959V118.958Z" fill="white"/>
<path d="M49.4789 135.646V139.458H35.2773V135.646H49.4789V135.646ZM43.6863 129.928V148.166C43.6863 149.113 43.9099 149.798 44.3585 150.221C44.8072 150.645 45.4296 150.856 46.2272 150.856C46.8254 150.856 47.3481 150.763 47.7968 150.576C48.2454 150.39 48.6571 150.147 49.0302 149.848L49.5561 152.218C49.6976 152.853 49.3953 153.511 48.8131 153.801C48.4352 153.989 48.0219 154.153 47.5716 154.294C46.6984 154.568 45.7898 154.706 44.8442 154.706C42.9498 154.706 41.4301 154.277 40.2851 153.416C39.1385 152.556 38.566 151.093 38.566 149.024V131.348L43.6863 129.928V129.928Z" fill="white"/>
<path d="M52.8418 153.011V136.02H57.3639L57.626 139.794C58.0747 138.474 58.7662 137.453 59.7005 136.729C60.6349 136.007 61.7863 135.645 63.1581 135.645C63.581 135.645 63.9621 135.682 64.2982 135.758C64.6343 135.833 64.9142 135.933 65.1393 136.057L64.5411 140.392C64.3416 140.293 64.0618 140.212 63.7 140.149C63.3382 140.088 62.8831 140.056 62.3363 140.056C61.5885 140.056 60.8841 140.243 60.2248 140.617C59.5639 140.99 59.0283 141.545 58.6183 142.28C58.2066 143.015 58.0023 143.932 58.0023 145.027V154.706H54.54C53.6041 154.706 52.845 153.947 52.845 153.011H52.8418Z" fill="white"/>
<path d="M70.7812 133.456C72.379 133.456 73.6743 132.161 73.6743 130.563C73.6743 128.965 72.379 127.67 70.7812 127.67C69.1835 127.67 67.8882 128.965 67.8882 130.563C67.8882 132.161 69.1835 133.456 70.7812 133.456Z" fill="white"/>
<path d="M73.359 136.02V154.706H69.8966C68.9607 154.706 68.2017 153.947 68.2017 153.011V136.02H73.359V136.02Z" fill="white"/>
<path d="M83.712 127.498V148.539C83.712 149.337 83.8358 149.935 84.0851 150.334C84.3344 150.733 84.8072 150.932 85.5051 150.932C85.8782 150.932 86.1966 150.908 86.4587 150.858C86.7209 150.808 87.0248 150.708 87.3738 150.559L87.0923 153.095C87.0296 153.653 86.6485 154.126 86.113 154.298C85.9039 154.365 85.6756 154.426 85.4311 154.484C84.783 154.634 84.1719 154.708 83.5994 154.708C81.6809 154.708 80.3606 154.209 79.6386 153.212C78.9149 152.217 78.5547 150.845 78.5547 149.102V127.498H83.712V127.498Z" fill="white"/>
<path d="M90.1753 153.011V127.873H95.3326V139.308C95.9051 138.088 96.7028 137.172 97.7239 136.561C98.7451 135.952 99.9158 135.646 101.238 135.646C102.56 135.646 103.629 135.896 104.602 136.394C105.573 136.893 106.34 137.647 106.9 138.655C107.461 139.663 107.741 140.916 107.741 142.412V154.708H104.279C103.343 154.708 102.584 153.949 102.584 153.013V143.869C102.584 142.325 102.285 141.235 101.686 140.599C101.088 139.964 100.316 139.646 99.3691 139.646C98.6969 139.646 98.0488 139.821 97.4264 140.168C96.8041 140.517 96.2991 141.072 95.9132 141.831C95.5272 142.592 95.3342 143.583 95.3342 144.803V154.708H91.8719C90.9359 154.708 90.1769 153.949 90.1769 153.013L90.1753 153.011Z" fill="white"/>
<path d="M123.252 142.373C123.252 141.326 122.972 140.498 122.411 139.888C121.85 139.279 121.084 138.973 120.113 138.973C119.142 138.973 118.357 139.21 117.683 139.684C117.011 140.158 116.525 140.955 116.226 142.075L111.89 140.768C112.289 139.099 113.198 137.766 114.618 136.769C116.038 135.773 117.956 135.273 120.373 135.273C122.018 135.273 123.438 135.529 124.633 136.038C125.83 136.55 126.758 137.315 127.417 138.336C128.076 139.358 128.408 140.63 128.408 142.148V149.735C128.408 150.706 128.843 151.192 129.715 151.192C129.914 151.192 130.12 151.179 130.331 151.155C130.542 151.131 130.723 151.092 130.873 151.042L130.661 153.263C130.601 153.882 130.149 154.4 129.538 154.516C129.535 154.516 129.53 154.516 129.527 154.518C129.128 154.592 128.667 154.63 128.144 154.63C127.296 154.63 126.531 154.487 125.846 154.201C125.161 153.915 124.625 153.466 124.239 152.855C123.853 152.245 123.66 151.465 123.66 150.52V150.221L124.371 150.071C124.272 151.092 123.898 151.953 123.25 152.651C122.602 153.349 121.805 153.865 120.859 154.201C119.912 154.537 118.916 154.706 117.869 154.706C116.075 154.706 114.611 154.27 113.478 153.398C112.344 152.527 111.778 151.256 111.778 149.587C111.778 148.267 112.19 147.157 113.011 146.261C113.833 145.364 115.091 144.742 116.786 144.393L123.812 142.897V145.924L119.513 146.821C118.666 146.996 118.017 147.257 117.57 147.606C117.122 147.955 116.898 148.465 116.898 149.138C116.898 149.812 117.128 150.285 117.59 150.634C118.051 150.983 118.641 151.157 119.365 151.157C119.864 151.157 120.349 151.089 120.822 150.951C121.295 150.814 121.713 150.591 122.075 150.279C122.435 149.967 122.723 149.581 122.935 149.121C123.146 148.661 123.254 148.106 123.254 147.458V142.375L123.252 142.373Z" fill="white"/>
<path d="M141.003 154.707C139.184 154.707 137.515 154.375 135.995 153.716C135.035 153.299 134.186 152.766 133.445 152.116C132.704 151.466 132.694 150.39 133.342 149.699L134.986 147.943C135.558 148.89 136.362 149.649 137.396 150.223C138.43 150.797 139.594 151.082 140.891 151.082C141.788 151.082 142.529 150.913 143.115 150.577C143.7 150.241 143.993 149.773 143.993 149.175C143.993 148.752 143.856 148.39 143.581 148.091C143.306 147.792 142.759 147.555 141.936 147.38L138.871 146.745C136.727 146.272 135.207 145.587 134.312 144.689C133.414 143.792 132.966 142.621 132.966 141.176C132.966 140.154 133.271 139.201 133.881 138.316C134.49 137.432 135.4 136.703 136.608 136.131C137.816 135.558 139.305 135.271 141.074 135.271C142.843 135.271 144.519 135.582 145.876 136.205C147.233 136.827 148.287 137.7 149.034 138.821L146.307 141.624C145.784 140.727 145.054 140.048 144.12 139.587C143.185 139.125 142.245 138.895 141.298 138.895C140.6 138.895 140.014 138.976 139.541 139.138C139.069 139.301 138.707 139.524 138.458 139.81C138.208 140.097 138.084 140.439 138.084 140.838C138.084 141.262 138.258 141.636 138.607 141.959C138.956 142.284 139.554 142.533 140.4 142.707L144.101 143.454C145.919 143.827 147.222 144.451 148.007 145.323C148.791 146.196 149.184 147.254 149.184 148.499C149.184 150.292 148.486 151.775 147.092 152.947C145.696 154.118 143.666 154.703 141 154.703L141.003 154.707Z" fill="white"/>
<path d="M60.9647 46.5184C62.277 46.7773 63.4791 46.2573 64.2085 45.3411C64.6722 44.7581 65.3768 44.4249 66.1219 44.4249H74.9663C75.7114 44.4249 76.416 44.7603 76.8797 45.3434C77.609 46.2595 78.8088 46.7795 80.1212 46.5207C81.4111 46.2663 82.4555 45.2015 82.6919 43.9094C83.0746 41.8137 81.4741 39.9858 79.4481 39.9858C78.4149 39.9858 77.501 40.4631 76.8999 41.2082C76.407 41.816 75.7001 42.2099 74.9167 42.2099H66.1714C65.388 42.2099 64.6812 41.8182 64.1882 41.2082C63.5872 40.4631 62.671 39.9858 61.64 39.9858C59.614 39.9858 58.0135 41.8137 58.3962 43.9094C58.6326 45.2015 59.6793 46.2663 60.9669 46.5207L60.9647 46.5184Z" fill="white"/>
<path d="M112.882 38.9937C114.705 38.9937 116.182 37.517 116.182 35.6936C116.182 33.8702 114.703 32.3936 112.882 32.3936C111.061 32.3936 109.582 33.8725 109.582 35.6936C109.582 37.5147 111.061 38.9937 112.882 38.9937Z" fill="white"/>
<path d="M120.684 60.2186C119.381 59.9755 118.194 60.5022 117.474 61.4184C116.988 62.0374 116.288 62.4494 115.502 62.4494H94.8937C93.9392 62.4494 93.1086 61.8798 92.6629 61.0357C91.7917 59.3879 90.0629 58.2646 88.0707 58.2646C86.0785 58.2646 84.3497 59.3879 83.4786 61.0357C83.0329 61.8798 82.2022 62.4494 81.2478 62.4494H76.5476C75.7507 62.4494 75.0326 62.0419 74.5419 61.4161C73.9408 60.653 73.0156 60.16 71.9666 60.16C70.9177 60.16 69.9925 60.653 69.3914 61.4161C68.8985 62.0419 68.1826 62.4494 67.3857 62.4494H61.2561C60.4682 62.4494 59.7704 62.0374 59.2842 61.4184C58.5661 60.5022 57.3775 59.9777 56.0742 60.2186C54.7663 60.4617 53.697 61.5354 53.4629 62.8456C53.0848 64.939 54.683 66.7601 56.7067 66.7601C57.7084 66.7601 58.6044 66.3122 59.2076 65.6054C59.6984 65.0313 60.3872 64.6644 61.1436 64.6644H67.5298C68.2862 64.6644 68.975 65.0291 69.4657 65.6031C70.069 66.3099 70.9649 66.7579 71.9666 66.7579C72.9684 66.7579 73.8643 66.3099 74.4676 65.6031C74.9583 65.0291 75.6471 64.6644 76.4035 64.6644H81.3671C82.2607 64.6644 83.0914 65.1416 83.5146 65.9273C84.3902 67.548 86.0988 68.6533 88.0707 68.6533C90.0427 68.6533 91.7512 67.5503 92.6269 65.9273C93.0523 65.1416 93.883 64.6644 94.7744 64.6644H115.615C116.371 64.6644 117.06 65.0291 117.551 65.6031C118.154 66.3099 119.05 66.7579 120.052 66.7579C122.075 66.7579 123.673 64.9368 123.298 62.8433C123.061 61.5332 121.992 60.4594 120.684 60.2163V60.2186Z" fill="white"/>
<path d="M128.901 50.3114C127.593 50.0458 126.393 50.5523 125.657 51.4572C125.196 52.0245 124.5 52.3419 123.771 52.3419H121.977C121.221 52.3419 120.529 51.975 120.039 51.3987C119.435 50.6896 118.539 50.2394 117.536 50.2394C116.532 50.2394 115.636 50.6896 115.032 51.3987C114.542 51.975 113.851 52.3419 113.094 52.3419H111.969C111.01 52.3419 110.134 51.7881 109.738 50.917C108.741 48.7312 106.537 47.2095 103.977 47.2095C101.418 47.2095 99.2141 48.7289 98.2169 50.917C97.8185 51.7881 96.9451 52.3419 95.9861 52.3419H94.219C93.4897 52.3419 92.7919 52.0222 92.3327 51.4572C91.5966 50.5523 90.3945 50.0458 89.0866 50.3114C87.808 50.5726 86.7725 51.6306 86.5384 52.9159C86.1535 55.0139 87.754 56.8418 89.7822 56.8418C90.829 56.8418 91.7541 56.351 92.3552 55.5879C92.8482 54.9621 93.564 54.5569 94.3586 54.5569H95.9051C96.9136 54.5569 97.787 55.1827 98.1944 56.1034C99.1781 58.3207 101.393 59.8694 103.977 59.8694C106.562 59.8694 108.777 58.3207 109.76 56.1034C110.168 55.1827 111.041 54.5569 112.05 54.5569H112.959C113.754 54.5569 114.472 54.9621 114.963 55.5879C115.564 56.351 116.489 56.8418 117.536 56.8418C118.582 56.8418 119.507 56.351 120.108 55.5879C120.601 54.9621 121.317 54.5569 122.112 54.5569H123.631C124.426 54.5569 125.144 54.9621 125.635 55.5879C126.236 56.351 127.161 56.8418 128.208 56.8418C130.236 56.8418 131.836 55.0116 131.449 52.9137C131.213 51.6306 130.18 50.5703 128.899 50.3114H128.901Z" fill="white"/>
<path d="M59.6366 54.5301H71.7653C72.722 54.5301 73.5549 55.0996 73.9983 55.946C74.955 57.7806 76.9742 58.9715 79.241 58.6991C81.2445 58.4582 82.9553 56.9905 83.5563 55.0636C83.8489 54.1249 83.8534 53.2335 83.6621 52.4186C83.4528 51.5272 83.6869 50.593 84.3554 49.9695L87.3538 47.1624C87.9009 46.6492 88.6527 46.4713 89.3978 46.5659C89.5239 46.5816 89.6522 46.5906 89.7827 46.5906C90.8002 46.5906 91.7051 46.1269 92.3084 45.4021C92.7992 44.81 93.4992 44.4296 94.2691 44.4296H114.11C114.855 44.4296 115.56 44.765 116.023 45.3458C116.753 46.262 117.952 46.7842 119.267 46.5231C120.557 46.2687 121.601 45.204 121.838 43.9119C122.221 41.8161 120.62 39.9883 118.594 39.9883C117.561 39.9883 116.647 40.4655 116.046 41.2106C115.553 41.8184 114.846 42.2123 114.063 42.2123H94.3141C93.551 42.2123 92.8374 41.8522 92.367 41.2511C91.6624 40.3485 90.5031 39.824 89.2245 40.0356C87.9819 40.2404 86.9419 41.1971 86.6065 42.4104C86.4917 42.8269 86.4624 43.2276 86.5007 43.6102C86.575 44.3328 86.3679 45.0554 85.8366 45.5529L83.0116 48.2001C82.3047 48.862 81.2917 49.0173 80.3846 48.6774C79.8308 48.4703 79.232 48.3532 78.604 48.3532C76.6388 48.3532 74.937 49.4495 74.0568 51.0612C73.6314 51.8424 72.803 52.3173 71.9138 52.3173H59.452C58.7294 52.3173 58.0383 52.0067 57.5791 51.4484C56.8385 50.5503 55.6364 50.0505 54.3308 50.3206C53.0567 50.584 52.028 51.642 51.7939 52.9206C51.4067 55.0186 53.0094 56.8487 55.0376 56.8487C56.0911 56.8487 57.0231 56.3512 57.6241 55.5791C58.1171 54.9466 58.8374 54.5346 59.6388 54.5346L59.6366 54.5301Z" fill="white"/>
<path d="M80.2622 67.9421C78.9453 67.6855 77.7432 68.2123 77.0184 69.1352C76.5547 69.7272 75.8433 70.0694 75.0937 70.0694H68.8448C68.0929 70.0694 67.3839 69.7272 66.9201 69.1352C66.1953 68.2123 64.9932 67.6855 63.6764 67.9399C62.382 68.192 61.3308 69.259 61.0944 70.5556C60.714 72.6513 62.3122 74.4769 64.3382 74.4769C65.3624 74.4769 66.2741 74.0065 66.8751 73.2726C67.3659 72.6716 68.0704 72.2867 68.8471 72.2867H75.0892C75.8659 72.2867 76.5704 72.6739 77.0612 73.2726C77.6622 74.0087 78.5739 74.4769 79.5981 74.4769C81.6241 74.4769 83.2223 72.6513 82.8419 70.5556C82.6055 69.259 81.5543 68.192 80.2622 67.9399V67.9421Z" fill="white"/>
<path d="M69.4388 38.9302C70.7557 39.1868 71.9555 38.6601 72.6804 37.7349C73.1441 37.1429 73.8554 36.8007 74.605 36.8007H94.7317C95.6637 36.8007 96.4898 37.3387 96.9333 38.1604C97.944 40.0332 100.071 41.215 102.426 40.8076C104.468 40.4542 106.151 38.8447 106.577 36.8165C107.279 33.4579 104.735 30.5 101.501 30.5C99.5332 30.5 97.8247 31.594 96.9445 33.208C96.4943 34.0342 95.6704 34.5879 94.7295 34.5879H74.6118C73.8351 34.5879 73.1306 34.2007 72.6398 33.602C72.0388 32.8659 71.1271 32.3976 70.1029 32.3976C68.0769 32.3976 66.4764 34.2233 66.8591 36.319C67.0955 37.6156 68.1467 38.6803 69.4411 38.9325L69.4388 38.9302Z" fill="white"/>
<path d="M71.9666 75.4697C70.1432 75.4697 68.6665 76.9487 68.6665 78.7698C68.6665 80.5909 70.1432 82.0698 71.9666 82.0698C73.7899 82.0698 75.2666 80.5931 75.2666 78.7698C75.2666 76.9464 73.7877 75.4697 71.9666 75.4697Z" fill="white"/>
</svg>
